# xmcd CD database file
#
# Track frame offsets:
#	150
#	34186
#	55848
#	76165
#	87812
#	106063
#	135826
#	164091
#	184078
#	197120
#	225551
#	239534
#
# Disc length: 3561 seconds
#
# Revision: 0
# Processed by: cddbd v1.4PL0 Copyright (c) Steve Scherf et al.
# Submitted via: CDex 1.50
#
DISCID=910de70c
DTITLE=Various Artist - Salsa mayor
DYEAR=1999
DGENRE=Salsa
TTITLE0=Allegre All Stars - Manteca
TTITLE1=Justo Betancourt - Sigo Bravo
TTITLE2=Richie Ray and Bobby Cruz - Tin Martin
TTITLE3=Ray Barretto - El Watusi
TTITLE4=Willie Colon - Jazzy
TTITLE5=Eddie Palmieri - Cafe
TTITLE6=Ismael Quintana - Mi Debilidad
TTITLE7=Pete "Conde" Rodriguez - Pueblo Latino
TTITLE8=Joe Cuba - Oriente
TTITLE9=Johnny Colon - Merecumbe
TTITLE10=Cachao - Desacarga Cubana
TTITLE11=Willie Colon - Aguanile
EXTD=YEAR: 1999
EXTT0=
EXTT1=
EXTT2=
EXTT3=
EXTT4=
EXTT5=
EXTT6=
EXTT7=
EXTT8=
EXTT9=
EXTT10=
EXTT11=
PLAYORDER=
